<svg xmlns="http://www.w3.org/2000/svg" width="36" height="36" viewBox="0 0 36 36">
  <path id="check-circle-o" d="M27.445,16.055l-9.891,9.891a1.473,1.473,0,0,1-2.11,0L8.555,19.055a1.473,1.473,0,0,1,0-2.11l2.391-2.391a1.473,1.473,0,0,1,2.11,0L16.5,18l6.445-6.445a1.473,1.473,0,0,1,2.11,0l2.391,2.391a1.473,1.473,0,0,1,0,2.11ZM30.75,18a12.459,12.459,0,0,0-1.711-6.4A12.72,12.72,0,0,0,24.4,6.961,12.45,12.45,0,0,0,18,5.25a12.475,12.475,0,0,0-6.4,1.711A12.7,12.7,0,0,0,6.961,11.6,12.466,12.466,0,0,0,5.25,18a12.466,12.466,0,0,0,1.711,6.4A12.7,12.7,0,0,0,11.6,29.039,12.475,12.475,0,0,0,18,30.75a12.45,12.45,0,0,0,6.4-1.711A12.72,12.72,0,0,0,29.039,24.4,12.459,12.459,0,0,0,30.75,18ZM36,18a17.609,17.609,0,0,1-2.414,9.035,17.917,17.917,0,0,1-6.551,6.551A17.609,17.609,0,0,1,18,36a17.609,17.609,0,0,1-9.035-2.414,17.917,17.917,0,0,1-6.551-6.551A17.609,17.609,0,0,1,0,18,17.609,17.609,0,0,1,2.414,8.965,17.917,17.917,0,0,1,8.965,2.414,17.609,17.609,0,0,1,18,0a17.609,17.609,0,0,1,9.035,2.414,17.917,17.917,0,0,1,6.551,6.551A17.609,17.609,0,0,1,36,18Z" fill="#03b143"/>
</svg>
