<?xml version="1.0" encoding="utf-8"?>
<!-- Generator: Adobe Illustrator 27.2.0, SVG Export Plug-In . SVG Version: 6.00 Build 0)  -->
<svg version="1.1" id="Layer_1" xmlns="http://www.w3.org/2000/svg" xmlns:xlink="http://www.w3.org/1999/xlink" x="0px" y="0px"
	 viewBox="0 0 513 130" style="enable-background:new 0 0 513 130;" xml:space="preserve">
<style type="text/css">
	.st0{fill:#E6BE8A;}
	.st1{fill:#D3A166;}
	.st2{fill:#1E1C1B;}
</style>
<g id="Layer_1_00000113322007366348889280000015631324946872319880_">
</g>
<path class="st0" d="M830.9-26.5c-11.4,0-20.6,7.1-20.6,16.2V1.1c0,3.7-3.7,6.7-8.2,6.7h-9.9V-92c0-1.2,0.4-2.4,1-3.3
	c0.6-1,1.5-1.7,2.6-2.2V-98h-3.6h-21h-3.6v0.5c2.1,1,3.6,3,3.6,5.5V3.6c0,1.2-0.4,2.4-1,3.3c-0.6,1-1.5,1.7-2.6,2.2v0.5h3.6h30.9
	h23.5c3.2,0,5.7-2.6,5.7-5.7v-30.5h-0.4V-26.5z"/>
<path class="st0" d="M696,55.8c32.1,0,58.1,26,58.1,58.1S728.1,172,696,172s-58.1-26-58.1-58.1S663.9,55.8,696,55.8z M748.5,113.9
	c0-13.4-5-25.6-13.2-34.9c-0.3-0.3-0.6-0.6-0.9-1c-0.1,0.4-0.2,0.8-0.3,1.3c-0.6,3.4-0.7,6.6-0.2,9.6c0.3,1.9,0.8,3.4,1.2,4.8
	c0.7,2.1,1.4,4.3,1.4,7.4c0,4.4-1.4,8.7-4.1,12.9c2.7,4.3,4.1,8.7,4.1,13.1c0,3-0.7,5.2-1.3,7.2c-0.5,1.5-0.9,3-1.2,5.1
	c-0.4,3-0.3,6.3,0.3,9.6c0,0.2,0.1,0.5,0.1,0.7c0.2-0.2,0.4-0.4,0.5-0.6C743.4,139.8,748.5,127.4,748.5,113.9z M731,101
	c0-2.2-0.5-3.8-1.1-5.7c-0.5-1.5-1-3.3-1.4-5.6c-0.5-3-0.5-6.2-0.1-9.5c-2.7,0.3-5.4,0.2-7.9-0.2c-2.4-0.4-4.3-0.9-5.9-1.4
	c-1.9-0.6-3.5-1-5.7-1c-3.8,0-7.7,1.4-11.5,4.1l-1.6,1.2l-1.6-1.2c-0.3-0.3-0.7-0.5-1.1-0.8c-0.5-0.4-1-0.7-1.5-0.9
	c-1.5-0.9-4.2-2.3-7.7-2.4c-1.2-0.1-2.3,0.1-3.3,0.2c-0.8,0.2-2,0.6-3.4,0.9c-2,0.5-4.1,1.2-5.6,1.4c-2.7,0.4-5.5,0.5-8.3,0.2
	c0.4,3.2,0.4,6.4-0.1,9.4c-0.4,2.3-0.9,4.1-1.4,5.6c-0.6,1.9-1.1,3.5-1.1,5.7c0,3.7,1.4,7.5,4.1,11.2l1.2,1.6l-1.2,1.6
	c-2.7,3.8-4.1,7.7-4.1,11.5c0,2.2,0.5,3.7,1,5.7c0.5,1.6,1,3.4,1.4,5.9c0.4,3,0.4,6.1,0,9.3c2.9-0.3,5.7-0.2,8.4,0.2
	c2.3,0.4,4.1,0.9,5.6,1.4c1.9,0.6,3.5,1.1,5.7,1.1c3.7,0,7.5-1.4,11.2-4.1l1.6-1.2l1.6,1.2c3.8,2.7,7.7,4.1,11.5,4.1
	c2.2,0,3.7-0.5,5.7-1c1.6-0.5,3.4-1,5.9-1.4c2.6-0.4,5.3-0.4,8-0.2c-0.4-3.2-0.4-6.4,0-9.4c0.4-2.4,0.9-4.3,1.4-5.9
	c0.6-1.9,1-3.5,1-5.7c0-3.8-1.4-7.7-4.1-11.5l-1.2-1.6l1.2-1.6C729.6,108.5,731,104.7,731,101z M729.6,74.6c0.4-0.1,0.7-0.1,1.1-0.2
	c-0.3-0.2-0.5-0.5-0.8-0.7c-9.2-7.7-21-12.4-33.9-12.4c-13,0-24.8,4.7-34,12.5c-0.3,0.2-0.5,0.4-0.8,0.7c0.3,0.1,0.7,0.1,1,0.2
	c3,0.5,5.9,0.5,8.6,0c1.9-0.3,3.4-0.8,4.8-1.2c2.1-0.7,4.3-1.4,7.4-1.4c4.3,0,8.7,1.4,12.9,4.1c4.3-2.7,8.7-4.1,13.1-4.1
	c3,0,5.2,0.7,7.2,1.3c1.5,0.5,3,0.9,5.1,1.2C723.9,75,726.7,75,729.6,74.6z M729.8,154c0.1-0.1,0.3-0.2,0.4-0.3
	c-0.2,0-0.3,0-0.5-0.1c-2.9-0.4-5.7-0.5-8.4-0.1c-2,0.3-3.6,0.8-5.1,1.2c-2.1,0.6-4.2,1.3-7.2,1.3c-4.4,0-8.8-1.4-13.1-4.1
	c-4.2,2.7-8.5,4.1-12.9,4.1c-3.1,0-5.3-0.7-7.4-1.4c-1.4-0.5-2.9-0.9-4.8-1.2c-2.8-0.5-5.7-0.4-8.7,0.1c-0.2,0-0.3,0.1-0.5,0.1
	c0.1,0.1,0.2,0.2,0.4,0.3c9.2,7.8,21,12.5,34,12.5C708.9,166.4,720.7,161.7,729.8,154z M657.9,88.9c0.5-3,0.4-6.2-0.2-9.5
	c-0.1-0.4-0.1-0.8-0.2-1.2c-0.3,0.3-0.5,0.6-0.8,0.9c-8.2,9.3-13.2,21.5-13.2,34.8c0,13.5,5.1,25.8,13.5,35.2
	c0.2,0.2,0.3,0.3,0.5,0.5c0-0.2,0.1-0.4,0.1-0.6c0.6-3.3,0.7-6.5,0.3-9.5c-0.3-2-0.8-3.6-1.2-5.1c-0.6-2.1-1.3-4.2-1.3-7.2
	c0-4.4,1.4-8.8,4.1-13.1c-2.7-4.2-4.1-8.5-4.1-12.9c0-3.1,0.7-5.3,1.4-7.4C657.1,92.2,657.5,90.8,657.9,88.9z"/>
<g>
	<path class="st1" d="M509.3,48.8c-0.6-0.8-1.4-1.2-2.3-1.4l-1.8-0.3c-8.6-0.6-16-1.8-22.2-3.6c-1.8-0.6-2.9-1-3.7-1.2
		c-4.3-1.7-8.1-3.9-11.7-6.8c5.9-2.2,11.3-5.4,16.2-9.5c3.6-3,5.7-6.2,6.5-9.9c0.7-3.3,0.1-6.2-1.9-8.7c-1.2-1.5-2.8-2.6-4.6-3.3
		c-1.2-0.4-2.6-0.7-4-0.7c-0.8,0-1.5,0.1-2.3,0.3c-3.9,0.7-7,2.3-9.8,5.2c-1-1.8-2.2-3.3-3.9-4.7c-1-0.8-2.1-1.4-3.2-1.9
		c-1.2-0.4-2.3-0.7-3.6-0.7c-2.3,0-4.7,1-6.5,2.6c-1,1-1.9,2.3-2.5,3.6c-1.5,3.6-1.5,7.5-0.1,11.5c1.5,4.4,3.9,8.6,7,12.7
		c-4.4,0.7-9,1.1-13.7,1.1c-4.1,0-8.6-0.3-13.1-0.8c-4.4-0.6-9-1.4-13.4-2.2c-1.5-0.3-3-0.6-4.6-0.8c-1.7-0.3-3.3-0.7-5-1l-4.1-0.8
		c-0.3,0-0.6-0.1-0.8-0.1c-1.8,0-3.5,1.2-3.6,2.9c-0.1,1.2,0.8,2.6,2.2,3.2h0.1l10.1,2.1c7,1.5,15.1,3,23.3,3.7
		c3.2,0.3,6.2,0.4,9.1,0.4c6.6,0,12.7-0.6,18.5-1.9c4.3,4,9.4,7.3,15.2,9.8c0,0,0.8,0.4,1.8,0.7c8.4,3.2,20.9,4.7,29.8,5.4h0.1h0.1
		c1.2-0.3,2.3-1.2,2.6-2.3C510,50.3,509.9,49.5,509.3,48.8z M454.1,10.7c0.3-0.7,0.7-1.2,1.2-1.8c0.4-0.3,0.8-0.8,1.5-1
		c0.1,0,0.4,0,0.6,0c0.3,0,0.7,0,1,0.1c0.4,0.1,1,0.4,1.4,0.8c1.7,1.5,2.6,3.5,3.3,5.9c0.1,0.4,0.3,0.8,0.4,1.4
		c0.3,0.6,0.6,1.1,1,1.7c0.6,0.8,1.4,1.2,2.2,1.4l0,0c1.5,0,2.5-1.4,3.5-2.6c0.6-0.7,0.8-1.2,1.2-1.8c0.4-0.7,0.7-1.2,1.5-1.9
		c0.3-0.4,0.7-0.7,1.1-1c1.5-1.2,3-1.9,4.7-2.2c0.4,0,0.7-0.1,1-0.1c0.6,0,1.2,0.1,1.7,0.3c1.8,0.7,2.8,2.5,2.2,4.6
		c-0.7,2.3-2.1,4.6-4.6,6.6c-5,4.1-10.6,7.3-17,9.3c-3-3.5-5.5-7.5-7.3-11.7C453.7,16.2,453.5,13,454.1,10.7z"/>
	<path class="st2" d="M470.3,50h-17.1H450v0.4c1.9,0.7,3.2,2.1,3.2,3.7v47.4h17.1V54.1c0-1.7,1.3-3.1,3.2-3.7V50
		C473.5,50,470.3,50,470.3,50z"/>
	<path class="st2" d="M442.6,96.9V18.1h-1.2c-9.5,0-16.8,5.1-17.6,11.7v13.3L406.7,43c-9.5,0-17.3,5.6-17.3,12.2v42.1
		c0,2.4,2.3,4.4,5.2,4.4h21.1h26.9l0,0h3.2v-0.4C444,100.4,442.6,98.8,442.6,96.9z M423.9,100.4h-8.2c-4.1,0-7.7-2.6-7.7-5.4V49.6
		c0-2.8,3.6-5.4,7.7-5.4h8.2l0,0V100.4z"/>
	<path class="st2" d="M366.9,43h-8.6h-27h-3.2v0.4c1.9,0.7,3.2,2.3,3.2,4.2v54h18V44.4h8.9c4.1,0,7.4,2.3,7.4,5.1v7.3
		c0,2.4,2.3,4.4,5.2,4.4h12.9V55C383.7,48.6,376.4,43,366.9,43z"/>
	<path class="st2" d="M320.8,96.9V55.1c0-6.5-7.7-12.2-17.2-12.2h-2H271c-2.8,0-5.2,2-5.2,4.4v13.9h1.6c9.5,0,17.3-5,17.3-11.5v-0.2
		c0-2.8,3.3-5.1,7.4-5.1h9.5v22.7h-9.5h-8.9c-9.5,0-17.4,4.9-17.4,11.4v18.6c0,2.4,2.3,4.4,5.2,4.4h23.5h26.3l0,0h3.2v-0.4
		C322.1,100.4,320.8,98.8,320.8,96.9z M301.8,95c0,2.8-3.2,5.4-7.3,5.4h-9.8V73.2c0-2.8,3.3-5.1,7.4-5.1h9.7V95z"/>
	<path class="st2" d="M238.9,43.1h-9h-28.2h-3.2v0.4c1.9,0.7,3.2,2.3,3.2,4.2v78.7h1.4c9.5,0,16.9-4.8,16.9-11.3v-13.6h12.2h6.7
		c9.5,0,16.5-5.5,16.5-12V55.1C255.4,48.6,248.4,43.1,238.9,43.1z M237.3,49.6v46.1c-2,3.3-3.8,4.1-5,4.3c-0.1,0-0.7,0-1.8,0
		c-2.4,0-2.6,0-4.9,0c-0.7,0-2.2,0-3.3,0c-0.6,0-0.6,0-0.7,0c-0.5,0-0.9-0.1-1.4,0H220c-0.1-0.1-0.1-0.2,0-0.3
		c0.1-0.4,0-0.8,0.1-1.3c0-0.3,0-0.4,0-0.8c0-1.1,0.1-2.5,0.1-2.7c0-16.9,0-33.7,0-50.6h9.8C234,44.4,237.3,46.8,237.3,49.6z"/>
	<path class="st2" d="M181.4,43c-2.6,0-5.2,0-7.8,0h-19c-9.5,0-17,5.6-17,12.2V97c0,1.5,0,3.1,0,4.6h27.8h9
		c9.5,0,16.4-5.6,16.4-12.2c0-12.1,0-24.1,0-36.2c0-0.7,0-4.1-2.7-7C185.4,43.4,182.1,43.1,181.4,43z M173.6,95
		c0,2.8-4.1,5.4-8.2,5.4h-8.9V49.5c0-2.8,2.4-5.4,6.5-5.4h10.6L173.6,95L173.6,95z"/>
	<path class="st2" d="M41.5,86.2V95c0,2.8-3.3,5.1-7.4,5.1h-8.9V23.4c0-1.9,1.3-3.5,3.2-4.2v-0.4h-3.2l0,0H6.3l0,0H3.1v0.4
		c1.9,0.7,3.2,2.3,3.2,4.2v73.5c0,1.9-1.4,3.5-3.2,4.2v0.4h3.2h27.8h21.1c2.8,0,5.2-2,5.2-4.4V73.7h-0.3
		C49.8,73.7,41.5,79.2,41.5,86.2z"/>
	<path class="st2" d="M108.9,43H89.2C79.7,43,72,48.6,72,55.2V97c0,1.5,0,3.1,0,4.6c9.6,0,19.1,0,28.7,0h9.1
		c9.5,0,17.2-5.6,17.2-12.2V73.7h-1.7c-9.5,0-17.2,5-17.2,11.5v9.7c0,2.8-3.3,5.1-7.4,5.1H90.6V69.3h10.1h8.7
		c9.5-0.7,16.6-6.1,17.6-12.4c0.5-2.9-0.2-7.8-3.3-10.4c-2-1.7-5-2.4-6.3-2.7c-1.8-0.4-3.5-0.6-4.6-0.6C111.2,43,109.9,43,108.9,43z
		 M108.9,63c0,2.8-4.1,5.1-8.2,5.1H90.6V49.6c0-2.8,3.7-5.4,7.8-5.4H109V63C109,63,108.9,63,108.9,63z"/>
</g>
</svg>
