<?xml version="1.0" encoding="utf-8"?>
<!-- Generator: Adobe Illustrator 27.7.0, SVG Export Plug-In . SVG Version: 6.00 Build 0)  -->
<svg version="1.1" id="Layer_1" xmlns="http://www.w3.org/2000/svg" xmlns:xlink="http://www.w3.org/1999/xlink" x="0px" y="0px"
	 viewBox="0 0 198.4 49" style="enable-background:new 0 0 198.4 49;" xml:space="preserve">
<style type="text/css">
	.st0{fill:#DDA968;}
	.st1{fill:#010202;}
</style>
<g>
	<path class="st0" d="M197.6,15.6c-0.2-0.2-0.4-0.4-0.7-0.4l-0.5-0.1c-2.5-0.2-4.6-0.5-6.4-1c-0.5-0.2-0.8-0.3-1.1-0.4
		c-1.2-0.5-2.3-1.1-3.4-1.9c1.7-0.6,3.3-1.6,4.7-2.7c1-0.9,1.6-1.8,1.9-2.9c0.2-1,0-1.8-0.6-2.5c-0.4-0.4-0.8-0.8-1.3-1
		c-0.4-0.1-0.8-0.2-1.2-0.2c-0.2,0-0.4,0-0.7,0.1c-1.1,0.2-2,0.7-2.8,1.5c-0.3-0.5-0.6-1-1.1-1.4c-0.3-0.2-0.6-0.4-0.9-0.6
		c-0.4-0.1-0.7-0.2-1-0.2c-0.7,0-1.4,0.3-1.9,0.8c-0.3,0.3-0.6,0.7-0.7,1c-0.4,1-0.4,2.1,0,3.3c0.4,1.3,1.1,2.5,2,3.7
		c-1.3,0.2-2.6,0.3-3.9,0.3c-1.2,0-2.5-0.1-3.8-0.2c-1.3-0.2-2.6-0.4-3.9-0.6c-0.4-0.1-0.9-0.2-1.3-0.2c-0.5-0.1-1-0.2-1.4-0.3
		l-1.2-0.2c-0.1,0-0.2,0-0.2,0c-0.5,0-1,0.4-1,0.8c0,0.4,0.2,0.8,0.6,0.9h0l2.9,0.6c2,0.4,4.3,0.9,6.7,1.1c0.9,0.1,1.8,0.1,2.6,0.1
		c1.9,0,3.7-0.2,5.3-0.6c1.2,1.2,2.7,2.1,4.4,2.8c0,0,0.2,0.1,0.5,0.2c2.4,0.9,6,1.4,8.6,1.6h0h0c0.4-0.1,0.7-0.4,0.8-0.7
		C197.8,16,197.7,15.8,197.6,15.6z M181.7,4.6c0.1-0.2,0.2-0.4,0.4-0.5c0.1-0.1,0.2-0.2,0.4-0.3c0,0,0.1,0,0.2,0c0.1,0,0.2,0,0.3,0
		c0.1,0,0.3,0.1,0.4,0.2c0.5,0.4,0.8,1,1,1.7c0,0.1,0.1,0.2,0.1,0.4c0.1,0.2,0.2,0.3,0.3,0.5c0.2,0.2,0.4,0.4,0.6,0.4l0,0
		c0.4,0,0.7-0.4,1-0.8c0.2-0.2,0.2-0.4,0.4-0.5c0.1-0.2,0.2-0.4,0.4-0.6c0.1-0.1,0.2-0.2,0.3-0.3c0.4-0.4,0.9-0.6,1.4-0.6
		c0.1,0,0.2,0,0.3,0c0.2,0,0.4,0,0.5,0.1c0.5,0.2,0.8,0.7,0.6,1.3c-0.2,0.7-0.6,1.3-1.3,1.9c-1.4,1.2-3.1,2.1-4.9,2.7
		c-0.9-1-1.6-2.1-2.1-3.4C181.5,6.2,181.5,5.3,181.7,4.6z"/>
	<path class="st1" d="M186.6,16.7h-6.8h-1.3v0.2c0.8,0.3,1.3,0.8,1.3,1.5v18.9h6.8V18.3c0-0.7,0.5-1.2,1.3-1.5v-0.2
		C187.9,16.7,186.6,16.7,186.6,16.7z"/>
	<path class="st1" d="M175.6,35.3V4h-0.5c-3.8,0-6.7,2-7,4.7v5.3l-6.8,0c-3.8,0-6.9,2.2-6.9,4.9v16.8c0,1,0.9,1.8,2.1,1.8h20.4v-0.2
		C176.1,36.7,175.6,36.1,175.6,35.3z M168.1,34.9h-3.3c-0.1,0-0.2,0-0.3,0c-0.9,0-1.4,0-1.9-0.2c-0.1-0.1-0.4-0.2-0.6-0.6
		c-0.2-0.4-0.2-0.8-0.2-1c0-4.8,0-9.7,0-14.5c0-0.2,0-0.5,0-0.7c0-0.4,0.1-0.7,0.3-0.9c0.5-0.8,1.7-0.9,2.2-0.9c0.2,0,0.5,0,0.6,0
		h3.3C168.1,23,168.1,29.8,168.1,34.9z"/>
	<path class="st1" d="M145.5,13.9H142h-10.7H130V14c0.8,0.3,1.3,0.9,1.3,1.7v21.5h7.2V16.1h3.5c0.2,0,0.5,0,0.8,0
		c0.7,0,1.3,0,1.7,0.4c0.2,0.2,0.3,0.5,0.4,0.6c0.1,0.3,0.1,0.6,0.1,0.7c0,0.5,0,1.1,0,1.6c0,1,0.9,1.8,2.1,1.8h5.1v-2.5
		C152.1,16.1,149.2,13.9,145.5,13.9z"/>
	<path class="st1" d="M127.1,35.3V18.7c0-2.6-3.1-4.9-6.8-4.9h-0.8h-12.2c-1.1,0-2.1,0.8-2.1,1.8v5.5h0.6c0.6-0.1,3.1-0.3,4.9-1.3
		c1.3-0.7,1.6-1.4,1.7-1.7c0.1-0.2,0.1-0.4,0.2-0.6c0-0.4,0.2-0.7,0.3-0.8c0.5-0.6,1.5-0.6,2.3-0.7c0.2,0,0.4,0,0.5,0
		c1.3,0,2.5,0,3.8,0v7.4h-3.8h-3.5c-3.8,0-6.9,1.9-6.9,4.5v7.4c0,1,0.9,1.8,2.1,1.8h9.4h10.5h1.3V37
		C127.6,36.7,127.1,36.1,127.1,35.3z M119.5,33c0,0.4-0.1,0.7-0.1,0.8c-0.4,0.8-1.5,1.2-2.8,1.1h-3.9c0-2.5,0-5-0.1-7.5
		c0-0.3,0.1-0.8,0.5-1.2c0.4-0.4,1-0.5,1.6-0.5c0.4,0,0.7,0,0.9,0c1.3,0,2.6,0,3.9,0C119.5,26.9,119.5,30,119.5,33z"/>
	<path class="st1" d="M94.5,13.9H78.4v0.2c0.8,0.3,1.3,0.9,1.3,1.7v31.3h0.6c3.8,0,6.7-1.9,6.7-4.5v-5.4h7.5c3.8,0,6.6-2.2,6.6-4.8
		V18.7C101.1,16.1,98.3,13.9,94.5,13.9z M93.9,33.2c0,0.3-0.1,0.5-0.1,0.6c-0.2,0.6-0.7,1-1.3,1.1c-0.1,0-0.2,0-0.2,0
		c-1.7,0-3.5,0-5.2,0c0-6.8,0-13.7,0-18.8H91c0.5-0.1,2-0.1,2.6,0.7c0.3,0.4,0.3,1,0.3,1.1c0,2.1,0.1,4.2,0,6.3
		C93.8,26.6,93.9,32.4,93.9,33.2z"/>
	<path class="st1" d="M71.6,13.9c-1,0-2.1,0-3.1,0H61c-3.8,0-6.8,2.2-6.8,4.9v16.6c0,0.6,0,1.2,0,1.8h11.1h3.6
		c3.8,0,6.5-2.2,6.5-4.9c0-4.8,0-9.6,0-14.4c0-0.3,0-1.6-1.1-2.8C73.2,14,71.9,13.9,71.6,13.9z M68.6,33.1c0,0.1,0,0.4-0.1,0.8
		c-0.1,0.2-0.2,0.3-0.2,0.4c-0.3,0.3-0.6,0.4-0.7,0.5c-0.1,0-0.4,0.1-1.6,0.1c-0.2,0-0.4,0-0.5,0c-0.6,0-1.6,0-3.5,0
		c0-5.6,0-11.3-0.1-16.9c0-0.5,0.2-0.9,0.3-1c0.5-0.7,1.5-0.8,1.9-0.9c0.2,0,0.4,0,0.5,0c1.4,0,2.8,0,4.2,0
		C68.5,24.9,68.5,32.6,68.6,33.1z"/>
	<path class="st1" d="M16,31.1c0,0.7,0,1.4,0,2c0,0.2,0,0.7-0.3,1.1c0,0.1-0.1,0.2-0.3,0.3c-0.5,0.5-1.3,0.4-2,0.4
		c-0.1,0-0.2,0-0.3,0c-1.2,0-2.4,0-3.5,0V6.1c0-0.8,0.5-1.4,1.3-1.7V4.2H9.5H2H0.7v0.2C1.5,4.7,2,5.3,2,6.1v29.2
		c0,0.8-0.6,1.4-1.3,1.7v0.2H2H13h8.4c1.1,0,2.1-0.8,2.1-1.8v-9.3h-0.1C19.3,26.1,16,28.3,16,31.1z"/>
	<path class="st1" d="M42.8,13.9H35c-3.8,0-6.8,2.2-6.8,4.9v16.6c0,0.6,0,1.2,0,1.8c3.8,0,7.6,0,11.4,0h3.6c3.8,0,6.8-2.2,6.8-4.9
		v-6.2h-0.7c-3.8,0-6.8,2-6.8,4.6c0,0.8,0,1.7,0,2.5c0,0.2,0,0.5-0.2,0.9c-0.1,0.1-0.2,0.4-0.5,0.6c-0.5,0.4-1.2,0.4-1.9,0.4
		c-0.2,0-0.3,0-0.4,0c-1.3,0-2.7,0-4,0l-0.1-10.7c1.3,0,2.6,0,3.8,0c1.2,0,2.5-0.1,3.7-0.1c3.7-0.3,6.5-2.4,6.9-4.8
		c0.2-1.2-0.1-3.1-1.3-4.1c-0.8-0.7-2-1-2.5-1.1C45.5,14,44.8,14,44.4,14C43.7,13.9,43.2,13.9,42.8,13.9z M42.7,20.9
		c-0.1,0.2-0.3,0.5-0.6,0.7c-0.5,0.4-1.1,0.4-1.7,0.5c-0.4,0-0.7,0-0.9,0c-1.3,0-2.7,0-4,0c0-1.4,0-2.8,0-4.1c0-0.3,0.2-1.1,0.8-1.5
		c0.4-0.2,0.9-0.3,1.6-0.3c0.3,0,0.6,0,0.8,0c1.4,0,2.8,0,4.2,0c0,1.3,0,2.7,0,4C42.9,20.3,42.9,20.6,42.7,20.9z"/>
</g>
</svg>
